<svg width="64" height="64" viewBox="0 0 64 64" fill="none" xmlns="http://www.w3.org/2000/svg">
<rect x="0.5" y="0.5" width="63" height="63" rx="15.5" fill="white"/>
<rect x="0.5" y="0.5" width="63" height="63" rx="15.5" stroke="#E6E6E6"/>
<path d="M22 28.6382C22 33.5006 29 38.5655 29 38.5655C29 38.5655 31 40 32 40C33 40 35 38.5655 35 38.5655C35 38.5655 42 33.5006 42 28.6382C42 23.7757 36.5 20.3957 32 25.6554C27.5 20.3957 22 23.7757 22 28.6382Z" fill="#111111"/>
<path d="M29 38.5655L28.4724 39.2947L28.4755 39.2969L29 38.5655ZM32 25.6554L31.3161 26.2405C31.4871 26.4404 31.737 26.5554 32 26.5554C32.263 26.5554 32.5129 26.4404 32.6839 26.2405L32 25.6554ZM35 38.5655L35.5245 39.2969L35.5276 39.2947L35 38.5655ZM29 38.5655C29.5276 37.8364 29.5277 37.8365 29.5278 37.8366C29.5278 37.8366 29.5279 37.8366 29.5279 37.8366C29.5279 37.8366 29.5278 37.8366 29.5276 37.8364C29.5272 37.8361 29.5264 37.8355 29.5251 37.8346C29.5227 37.8328 29.5185 37.8298 29.5128 37.8256C29.5014 37.8172 29.4836 37.8041 29.4599 37.7863C29.4124 37.7509 29.3412 37.6972 29.2497 37.6264C29.0666 37.4849 28.8027 37.2756 28.4849 37.0088C27.8479 36.4742 27.0013 35.7143 26.1578 34.811C25.3118 33.905 24.4865 32.8735 23.8769 31.7971C23.2643 30.7156 22.9 29.6429 22.9 28.6382H22H21.1C21.1 30.0647 21.6107 31.4485 22.3106 32.6842C23.0135 33.9251 23.9382 35.0715 24.8422 36.0395C25.7487 37.0103 26.6521 37.8206 27.3276 38.3875C27.6661 38.6716 27.949 38.896 28.1487 39.0504C28.2486 39.1277 28.3278 39.1875 28.3829 39.2286C28.4104 39.2492 28.432 39.2651 28.447 39.2761C28.4545 39.2817 28.4605 39.286 28.4647 39.2891C28.4668 39.2906 28.4686 39.2919 28.4698 39.2928C28.4705 39.2933 28.471 39.2937 28.4714 39.294C28.4717 39.2941 28.4719 39.2943 28.472 39.2944C28.4722 39.2946 28.4724 39.2947 29 38.5655ZM22 28.6382H22.9C22.9 26.5385 24.0844 24.828 25.6543 24.1836C27.158 23.5663 29.2623 23.8399 31.3161 26.2405L32 25.6554L32.6839 25.0703C30.2377 22.2113 27.342 21.545 24.9707 22.5184C22.6656 23.4647 21.1 25.8753 21.1 28.6382H22ZM29 38.5655C28.4755 39.2969 28.4756 39.297 28.4757 39.297C28.4757 39.2971 28.4758 39.2971 28.4759 39.2972C28.4761 39.2973 28.4763 39.2975 28.4765 39.2976C28.477 39.298 28.4776 39.2984 28.4783 39.2989C28.4797 39.2999 28.4816 39.3013 28.484 39.303C28.4888 39.3064 28.4954 39.3111 28.5039 39.3171C28.5208 39.329 28.5449 39.3459 28.5755 39.3671C28.6366 39.4094 28.7239 39.469 28.8313 39.5401C29.0452 39.6818 29.3434 39.8719 29.6771 40.0634C30.0081 40.2534 30.3896 40.4535 30.7681 40.6086C31.1254 40.7551 31.5702 40.9 32 40.9V40V39.1C31.9298 39.1 31.7496 39.0656 31.4507 38.9431C31.1729 38.8292 30.8669 38.6708 30.5729 38.5021C30.2816 38.335 30.0173 38.1665 29.825 38.0392C29.7292 37.9759 29.6524 37.9234 29.6003 37.8873C29.5742 37.8692 29.5544 37.8553 29.5415 37.8462C29.5351 37.8417 29.5304 37.8384 29.5275 37.8363C29.5261 37.8353 29.5251 37.8346 29.5246 37.8343C29.5244 37.8341 29.5242 37.834 29.5242 37.834C29.5242 37.834 29.5242 37.834 29.5243 37.834C29.5243 37.834 29.5244 37.8341 29.5244 37.8341C29.5245 37.8341 29.5245 37.8342 29 38.5655ZM35 38.5655C35.5276 39.2947 35.5278 39.2946 35.528 39.2944C35.5281 39.2943 35.5283 39.2941 35.5286 39.294C35.529 39.2937 35.5295 39.2933 35.5302 39.2928C35.5314 39.2919 35.5332 39.2906 35.5353 39.2891C35.5395 39.286 35.5455 39.2817 35.553 39.2761C35.568 39.2651 35.5896 39.2492 35.6171 39.2286C35.6722 39.1875 35.7514 39.1277 35.8513 39.0504C36.051 38.896 36.3339 38.6716 36.6724 38.3875C37.3479 37.8206 38.2513 37.0103 39.1578 36.0395C40.0618 35.0715 40.9865 33.9251 41.6894 32.6842C42.3893 31.4485 42.9 30.0647 42.9 28.6382H42H41.1C41.1 29.6429 40.7357 30.7156 40.1231 31.7971C39.5135 32.8735 38.6882 33.905 37.8422 34.811C36.9987 35.7143 36.1521 36.4742 35.5151 37.0088C35.1973 37.2756 34.9334 37.4849 34.7503 37.6264C34.6588 37.6972 34.5876 37.7509 34.5401 37.7863C34.5164 37.8041 34.4986 37.8172 34.4872 37.8256C34.4815 37.8298 34.4773 37.8328 34.4749 37.8346C34.4736 37.8355 34.4728 37.8361 34.4724 37.8364C34.4722 37.8366 34.4721 37.8366 34.4721 37.8366C34.4721 37.8366 34.4722 37.8366 34.4722 37.8366C34.4723 37.8365 34.4724 37.8364 35 38.5655ZM42 28.6382H42.9C42.9 25.8753 41.3344 23.4647 39.0293 22.5184C36.658 21.545 33.7623 22.2113 31.3161 25.0703L32 25.6554L32.6839 26.2405C34.7377 23.8399 36.842 23.5663 38.3457 24.1836C39.9156 24.828 41.1 26.5385 41.1 28.6382H42ZM35 38.5655C34.4755 37.8342 34.4755 37.8341 34.4756 37.8341C34.4756 37.8341 34.4757 37.834 34.4757 37.834C34.4758 37.834 34.4758 37.834 34.4758 37.834C34.4758 37.834 34.4756 37.8341 34.4754 37.8343C34.4749 37.8346 34.4739 37.8353 34.4725 37.8363C34.4696 37.8384 34.4649 37.8417 34.4585 37.8462C34.4456 37.8553 34.4258 37.8692 34.3997 37.8873C34.3476 37.9234 34.2708 37.9759 34.175 38.0392C33.9827 38.1665 33.7184 38.335 33.4271 38.5021C33.1331 38.6708 32.8271 38.8292 32.5493 38.9431C32.2504 39.0656 32.0702 39.1 32 39.1V40V40.9C32.4298 40.9 32.8746 40.7551 33.2319 40.6086C33.6104 40.4535 33.9919 40.2534 34.3229 40.0634C34.6566 39.8719 34.9548 39.6818 35.1687 39.5401C35.2761 39.469 35.3634 39.4094 35.4245 39.3671C35.4551 39.3459 35.4792 39.329 35.4961 39.3171C35.5046 39.3111 35.5112 39.3064 35.516 39.303C35.5184 39.3013 35.5203 39.2999 35.5217 39.2989C35.5224 39.2984 35.523 39.298 35.5235 39.2976C35.5237 39.2975 35.5239 39.2973 35.5241 39.2972C35.5242 39.2971 35.5243 39.2971 35.5243 39.297C35.5244 39.297 35.5245 39.2969 35 38.5655Z" fill="#111111"/>
</svg>
