<svg width="54" height="54" viewBox="0 0 54 54" fill="none" xmlns="http://www.w3.org/2000/svg">
<rect x="0.5" y="0.5" width="53" height="53" rx="15.5" fill="white"/>
<rect x="0.5" y="0.5" width="53" height="53" rx="15.5" stroke="#E6E6E6"/>
<path d="M20 24.9799C20 28.4122 24.9 31.9874 24.9 31.9874C24.9 31.9874 26.3 33 27 33C27.7 33 29.3333 31.875 29.3333 31.875C29.3333 31.875 34 28.4122 34 24.9799C34 21.5476 30.15 19.1617 27 22.8744C23.85 19.1617 20 21.5476 20 24.9799Z" fill="#111111"/>
<path d="M24.9 31.9874L24.4579 32.5933L24.4605 32.5952L24.9 31.9874ZM27 22.8744L26.4281 23.3596C26.5706 23.5276 26.7797 23.6244 27 23.6244C27.2203 23.6244 27.4294 23.5276 27.5719 23.3596L27 22.8744ZM29.3333 31.875L29.7588 32.4927L29.7696 32.4852L29.7803 32.4773L29.3333 31.875ZM24.9 31.9874C25.3421 31.3816 25.3422 31.3817 25.3423 31.3817C25.3423 31.3817 25.3424 31.3818 25.3424 31.3818C25.3424 31.3818 25.3424 31.3818 25.3423 31.3817C25.342 31.3815 25.3415 31.3812 25.3407 31.3806C25.3391 31.3794 25.3363 31.3773 25.3324 31.3745C25.3247 31.3687 25.3125 31.3596 25.2961 31.3473C25.2634 31.3227 25.2141 31.2852 25.1506 31.2356C25.0236 31.1366 24.84 30.9899 24.6189 30.8027C24.1756 30.4275 23.5867 29.8944 23.0003 29.2612C22.4119 28.6258 21.8405 27.905 21.4195 27.1555C20.9962 26.4019 20.75 25.6637 20.75 24.9799H20H19.25C19.25 26.0122 19.6163 27.008 20.1117 27.8901C20.6095 28.7764 21.2631 29.593 21.8997 30.2804C22.5383 30.97 23.1744 31.5453 23.6498 31.9477C23.8881 32.1493 24.0874 32.3087 24.2283 32.4186C24.2988 32.4735 24.3548 32.5162 24.3938 32.5456C24.4134 32.5603 24.4287 32.5717 24.4394 32.5797C24.4448 32.5837 24.4491 32.5868 24.4522 32.5891C24.4537 32.5902 24.455 32.5912 24.456 32.5919C24.4564 32.5922 24.4568 32.5925 24.4572 32.5928C24.4573 32.5929 24.4575 32.593 24.4576 32.5931C24.4578 32.5932 24.4579 32.5933 24.9 31.9874ZM20 24.9799H20.75C20.75 23.5364 21.5571 22.3748 22.6056 21.9407C23.597 21.5304 25.0154 21.6946 26.4281 23.3596L27 22.8744L27.5719 22.3892C25.8346 20.3415 23.753 19.8423 22.0319 20.5548C20.3679 21.2436 19.25 22.9911 19.25 24.9799H20ZM24.9 31.9874C24.4605 32.5952 24.4605 32.5952 24.4606 32.5953C24.4607 32.5953 24.4607 32.5954 24.4608 32.5954C24.461 32.5955 24.4611 32.5956 24.4613 32.5957C24.4617 32.596 24.4621 32.5963 24.4626 32.5967C24.4637 32.5975 24.4651 32.5985 24.4668 32.5997C24.4703 32.6022 24.4751 32.6056 24.4811 32.6099C24.4932 32.6186 24.5104 32.6307 24.5321 32.6459C24.5755 32.6762 24.6373 32.7187 24.7133 32.7694C24.8645 32.8704 25.0754 33.0061 25.3119 33.1429C25.5461 33.2784 25.8183 33.4226 26.0901 33.5349C26.3441 33.6399 26.674 33.75 27 33.75V33V32.25C27.0007 32.25 26.9925 32.25 26.974 32.2472C26.9557 32.2444 26.931 32.2394 26.8996 32.2312C26.8355 32.2143 26.7563 32.1872 26.663 32.1487C26.4755 32.0711 26.2664 31.9622 26.0631 31.8446C25.8621 31.7282 25.6793 31.6108 25.5461 31.5219C25.4799 31.4777 25.4268 31.4411 25.3909 31.416C25.373 31.4035 25.3594 31.3939 25.3507 31.3877C25.3463 31.3846 25.3431 31.3823 25.3412 31.381C25.3403 31.3803 25.3397 31.3798 25.3394 31.3796C25.3393 31.3795 25.3392 31.3795 25.3392 31.3795C25.3392 31.3795 25.3393 31.3795 25.3393 31.3796C25.3393 31.3796 25.3394 31.3796 25.3394 31.3796C25.3395 31.3797 25.3395 31.3797 24.9 31.9874ZM29.3333 31.875C29.7803 32.4773 29.7804 32.4772 29.7806 32.4771C29.7807 32.477 29.7809 32.4768 29.781 32.4767C29.7814 32.4765 29.7818 32.4762 29.7822 32.4758C29.7832 32.4751 29.7844 32.4742 29.7859 32.4731C29.7889 32.4708 29.793 32.4678 29.7982 32.4638C29.8086 32.456 29.8233 32.4449 29.842 32.4305C29.8795 32.4018 29.933 32.3603 30.0004 32.3067C30.1352 32.1997 30.3255 32.0444 30.553 31.8477C31.007 31.4552 31.6142 30.8932 32.2238 30.2166C33.406 28.9047 34.75 26.9968 34.75 24.9799H34H33.25C33.25 26.3953 32.2607 27.935 31.1095 29.2125C30.5525 29.8307 29.993 30.3489 29.572 30.713C29.362 30.8945 29.1878 31.0366 29.0673 31.1323C29.0071 31.1801 28.9604 31.2163 28.9295 31.24C28.914 31.2519 28.9025 31.2606 28.8952 31.2661C28.8916 31.2688 28.889 31.2708 28.8875 31.2719C28.8868 31.2724 28.8863 31.2728 28.8861 31.2729C28.886 31.273 28.886 31.273 28.8861 31.273C28.8861 31.2729 28.8862 31.2729 28.8862 31.2729C28.8863 31.2728 28.8864 31.2727 29.3333 31.875ZM34 24.9799H34.75C34.75 22.9911 33.6321 21.2436 31.9681 20.5548C30.247 19.8423 28.1654 20.3415 26.4281 22.3892L27 22.8744L27.5719 23.3596C28.9846 21.6946 30.403 21.5304 31.3944 21.9407C32.4429 22.3748 33.25 23.5364 33.25 24.9799H34ZM29.3333 31.875C28.9079 31.2573 28.908 31.2573 28.908 31.2573C28.908 31.2573 28.9081 31.2572 28.9081 31.2572C28.9081 31.2572 28.9081 31.2572 28.9081 31.2572C28.9081 31.2572 28.9079 31.2573 28.9077 31.2575C28.9072 31.2578 28.9064 31.2584 28.9052 31.2592C28.9028 31.2609 28.8988 31.2635 28.8935 31.2672C28.8828 31.2744 28.8664 31.2855 28.845 31.2998C28.8022 31.3284 28.7394 31.3699 28.6616 31.4199C28.5053 31.5204 28.2915 31.6533 28.0591 31.7851C27.8244 31.9183 27.5832 32.0431 27.3699 32.1325C27.2636 32.1771 27.1738 32.2088 27.102 32.2286C27.0257 32.2496 26.9952 32.25 27 32.25V33V33.75C27.3337 33.75 27.6842 33.6273 27.9499 33.5159C28.2397 33.3944 28.5381 33.2379 28.7992 33.0899C29.0626 32.9404 29.301 32.7921 29.4728 32.6817C29.559 32.6262 29.6293 32.5798 29.6785 32.5469C29.7032 32.5304 29.7226 32.5173 29.7362 32.5081C29.7429 32.5035 29.7483 32.4998 29.7521 32.4973C29.754 32.496 29.7555 32.4949 29.7566 32.4942C29.7572 32.4938 29.7576 32.4935 29.758 32.4932C29.7582 32.4931 29.7583 32.493 29.7584 32.4929C29.7585 32.4928 29.7586 32.4928 29.7586 32.4928C29.7587 32.4927 29.7588 32.4927 29.3333 31.875Z" fill="#111111"/>
</svg>
