<?xml version="1.0" standalone="no"?>
<!DOCTYPE svg PUBLIC "-//W3C//DTD SVG 20010904//EN"
 "http://www.w3.org/TR/2001/REC-SVG-20010904/DTD/svg10.dtd">
<svg version="1.0" xmlns="http://www.w3.org/2000/svg"
 width="48.000000pt" height="56.000000pt" viewBox="0 0 48.000000 56.000000"
 preserveAspectRatio="xMidYMid meet">

<g transform="translate(0.000000,56.000000) scale(0.100000,-0.100000)"
fill="#000000" stroke="none">
<path d="M178 511 c-157 -51 -215 -240 -111 -361 39 -46 101 -79 146 -80 24 0
27 -4 27 -35 l0 -35 43 26 c96 60 165 150 181 237 16 84 -41 189 -125 233 -37
19 -123 27 -161 15z m72 -192 c0 -19 3 -18 35 10 20 17 40 31 45 31 15 0 40
-30 40 -48 0 -10 9 -23 20 -30 11 -7 20 -21 20 -31 0 -18 -62 -81 -80 -81 -12
0 -40 29 -40 42 0 5 -14 -2 -31 -16 -40 -34 -58 -33 -72 4 l-11 30 -33 -32
c-27 -26 -37 -30 -51 -22 -35 22 -25 48 47 118 62 59 73 66 91 56 11 -6 20
-20 20 -31z"/>
</g>
</svg>
