<svg width="20" height="24" viewBox="0 0 20 24" fill="none" xmlns="http://www.w3.org/2000/svg">
<circle cx="10" cy="10.8984" r="8" fill="#F9502E"/>
<mask id="mask0_3036_38879" style="mask-type:alpha" maskUnits="userSpaceOnUse" x="10" y="2" width="8" height="20">
<rect width="8" height="18.2" transform="matrix(1 0 0 -1 10 21.1016)" fill="#D9D9D9"/>
</mask>
<g mask="url(#mask0_3036_38879)">
<path d="M2 10.8984C2 17.4984 10 21.0984 10 21.0984C10 21.0984 18 17.4984 18 10.8984C18 6.48016 14.4183 2.89844 10 2.89844C5.58172 2.89844 2 6.48016 2 10.8984Z" fill="#F9502E"/>
</g>
<path d="M13.1327 8.45312C13.6419 8.45312 14.0709 8.7936 14.2069 9.25879C14.2136 9.28078 14.2192 9.30292 14.2245 9.3252C14.2267 9.33496 14.2294 9.34463 14.2314 9.35449C14.2522 9.45457 14.2592 9.55659 14.2528 9.6582V10.9004C14.6569 10.7318 15.1399 10.8143 15.4657 11.1455C15.8934 11.5804 15.8878 12.2793 15.453 12.707L13.9257 14.21C13.8502 14.2842 13.7653 14.3435 13.6767 14.3916C13.6721 14.3942 13.6676 14.3969 13.663 14.3994C13.6511 14.4057 13.6389 14.4112 13.6269 14.417C13.4777 14.4905 13.3103 14.5332 13.1327 14.5332C12.5143 14.533 12.0136 14.0315 12.0136 13.4131V12.2666L10.0644 14.1836C9.85978 14.405 9.56826 14.5449 9.24307 14.5449C8.62451 14.5449 8.12295 14.0434 8.12295 13.4248V12.2422L6.12198 14.2109C5.68093 14.6445 4.97166 14.6383 4.53799 14.1973C4.10436 13.7562 4.11066 13.047 4.55167 12.6133L8.44815 8.78125C8.78258 8.45243 9.27094 8.37704 9.67667 8.55176C10.0799 8.72124 10.3632 9.12017 10.3632 9.58496V10.7119L12.329 8.7793C12.5355 8.57628 12.8002 8.46905 13.0683 8.45605C13.0896 8.45484 13.1111 8.45313 13.1327 8.45312Z" fill="white"/>
</svg>
