<svg width="56" height="58" viewBox="0 0 56 58" fill="none" xmlns="http://www.w3.org/2000/svg">
<g filter="url(#filter0_dd_11_612)">
<rect width="56" height="57.6311" rx="10.8738" fill="white"/>
<rect x="0.576397" y="0.576397" width="54.8472" height="56.4783" rx="10.2974" stroke="#E6E6E6" stroke-width="1.15279"/>
<path d="M20.375 38.968C22.2632 38.9681 23.7937 40.4833 23.7939 42.3527C23.7939 44.2224 22.2634 45.7383 20.375 45.7385C18.4865 45.7385 16.9551 44.2225 16.9551 42.3527C16.9553 40.4832 18.4867 38.968 20.375 38.968ZM34.8125 38.968C36.7007 38.9681 38.2312 40.4833 38.2314 42.3527C38.2314 44.2224 36.7009 45.7383 34.8125 45.7385C32.924 45.7385 31.3926 44.2225 31.3926 42.3527C31.3928 40.4832 32.9242 38.968 34.8125 38.968ZM26.4326 11.8928C26.8708 11.8896 27.303 11.9939 27.6904 12.1965C28.0779 12.3991 28.4089 12.6938 28.6533 13.0539C28.8976 13.4139 29.0478 13.8283 29.0908 14.26C29.1339 14.6916 29.0688 15.1271 28.9004 15.5275C28.7319 15.9279 28.4658 16.2811 28.126 16.5549C29.137 17.5362 29.7505 18.85 29.8506 20.2482C30.7898 21.1536 31.4825 22.2802 31.8643 23.5217C33.8704 23.785 38.7031 25.0716 38.7031 31.4436C38.7032 31.7186 38.8134 31.9824 39.0098 32.1769C39.2064 32.3717 39.4738 32.4816 39.752 32.4816C40.0299 32.4815 40.2966 32.3716 40.4932 32.1769C40.6896 31.9824 40.7997 31.7187 40.7998 31.4436C40.7998 22.6264 33.1935 21.535 31.3926 21.3996V21.0383C31.3927 19.8073 31.8874 18.6265 32.7666 17.7561C33.6457 16.8858 34.8379 16.3968 36.0811 16.3967C38.2584 16.3967 40.3472 17.2512 41.8896 18.7727C43.432 20.294 44.3024 22.3584 44.3105 24.5139V29.7805C44.3106 31.8085 43.5011 33.7546 42.0576 35.1936C40.6141 36.6325 38.6539 37.4482 36.6055 37.4621H27.6465V37.3937C27.5214 37.4178 27.3941 37.4309 27.2666 37.4318H24.9873C24.4835 37.4318 23.9998 37.2338 23.6436 36.8811C23.2874 36.5284 23.0879 36.0497 23.0879 35.551C23.0879 35.0523 23.2874 34.5736 23.6436 34.2209C23.9998 33.8682 24.4835 33.6701 24.9873 33.6701H27.2666C27.394 33.6711 27.5214 33.6832 27.6465 33.7072V30.3225C27.6445 30.0139 27.5201 29.7184 27.2998 29.5002C27.0794 29.2819 26.7805 29.1584 26.4688 29.1564H17.4268C17.115 29.1584 16.8162 29.2819 16.5957 29.5002C16.3754 29.7184 16.251 30.0139 16.249 30.3225V31.8264C16.4849 32.0015 16.6757 32.2293 16.8076 32.4904C16.9395 32.7515 17.0088 33.0393 17.0088 33.3312V35.5881C17.0088 36.0869 16.8083 36.5655 16.4521 36.9182C16.096 37.2708 15.613 37.4688 15.1094 37.4689C14.6055 37.4689 14.1219 37.2709 13.7656 36.9182C13.4094 36.5655 13.209 36.0869 13.209 35.5881V33.3312C13.2096 32.8596 13.39 32.4056 13.7139 32.0598C14.0379 31.7139 14.482 31.502 14.957 31.466C13.9747 30.7859 13.1671 29.8863 12.5996 28.841C12.0323 27.7959 11.7205 26.6336 11.6895 25.4475C11.7018 24.4747 11.9095 23.5137 12.3008 22.6213C12.6922 21.7287 13.2592 20.9215 13.9688 20.2482C14.0689 18.8498 14.6831 17.5362 15.6943 16.5549C15.3544 16.2811 15.0875 15.928 14.9189 15.5275C14.7505 15.1272 14.6855 14.6916 14.7285 14.26C14.7716 13.8284 14.9218 13.4139 15.166 13.0539C15.4104 12.6938 15.7415 12.3991 16.1289 12.1965C16.5164 11.9939 16.9485 11.8896 17.3867 11.8928C17.8248 11.8959 18.2553 12.006 18.6396 12.2141C19.0241 12.4222 19.3508 12.7216 19.5898 13.0852C19.8289 13.4487 19.973 13.8657 20.0098 14.298C21.263 14.0414 22.5564 14.0414 23.8096 14.298C23.8463 13.8657 23.9904 13.4487 24.2295 13.0852C24.4686 12.7216 24.7952 12.4222 25.1797 12.2141C25.564 12.006 25.9946 11.896 26.4326 11.8928ZM18.9004 23.1672C18.4974 23.1673 18.1111 23.3265 17.8262 23.6086C17.5412 23.8907 17.3809 24.2731 17.3809 24.6721C17.3809 25.0711 17.5412 25.4543 17.8262 25.7365C18.1111 26.0185 18.4975 26.1769 18.9004 26.1769H20.3291C20.6675 26.1771 20.9966 26.0653 21.2637 25.8596C21.5305 25.6538 21.7208 25.3659 21.8037 25.0412C21.8604 24.8191 21.865 24.5866 21.8174 24.3625C21.7698 24.1384 21.6705 23.9279 21.5283 23.7473C21.3863 23.5669 21.2046 23.4209 20.9971 23.3205C20.7892 23.22 20.5604 23.1671 20.3291 23.1672H18.9004ZM18.1699 19.6662C17.9718 19.6276 17.7663 19.6476 17.5801 19.7248C17.3938 19.802 17.2353 19.9329 17.124 20.0998C17.0128 20.2667 16.9536 20.4624 16.9551 20.6623C16.9571 20.9271 17.0648 21.1802 17.2539 21.3674C17.443 21.5546 17.6985 21.6613 17.9658 21.6633C18.1677 21.6648 18.3656 21.6064 18.5342 21.4963C18.7028 21.3861 18.8351 21.2286 18.9131 21.0441C18.991 20.8597 19.0117 20.6563 18.9727 20.4602C18.9336 20.2639 18.8362 20.083 18.6934 19.9416C18.5506 19.8003 18.368 19.7048 18.1699 19.6662ZM21.8193 19.6662C21.6212 19.7049 21.4387 19.8002 21.2959 19.9416C21.153 20.083 21.0566 20.2639 21.0176 20.4602C20.9785 20.6564 20.9991 20.8596 21.0771 21.0441C21.1552 21.2286 21.2865 21.3861 21.4551 21.4963C21.6236 21.6064 21.8215 21.6647 22.0234 21.6633C22.2909 21.6613 22.5472 21.5546 22.7363 21.3674C22.9253 21.1802 23.0322 20.9269 23.0342 20.6623C23.0357 20.4624 22.9774 20.2666 22.8662 20.0998C22.7549 19.9329 22.5955 19.802 22.4092 19.7248C22.2229 19.6476 22.0175 19.6276 21.8193 19.6662Z" fill="#F9502E"/>
</g>
<defs>
<filter id="filter0_dd_11_612" x="-28" y="-12" width="112" height="113.631" filterUnits="userSpaceOnUse" color-interpolation-filters="sRGB">
<feFlood flood-opacity="0" result="BackgroundImageFix"/>
<feColorMatrix in="SourceAlpha" type="matrix" values="0 0 0 0 0 0 0 0 0 0 0 0 0 0 0 0 0 0 127 0" result="hardAlpha"/>
<feMorphology radius="4" operator="erode" in="SourceAlpha" result="effect1_dropShadow_11_612"/>
<feOffset dy="4"/>
<feGaussianBlur stdDeviation="2"/>
<feComposite in2="hardAlpha" operator="out"/>
<feColorMatrix type="matrix" values="0 0 0 0 0.0470588 0 0 0 0 0.0470588 0 0 0 0 0.0509804 0 0 0 0.05 0"/>
<feBlend mode="normal" in2="BackgroundImageFix" result="effect1_dropShadow_11_612"/>
<feColorMatrix in="SourceAlpha" type="matrix" values="0 0 0 0 0 0 0 0 0 0 0 0 0 0 0 0 0 0 127 0" result="hardAlpha"/>
<feMorphology radius="4" operator="erode" in="SourceAlpha" result="effect2_dropShadow_11_612"/>
<feOffset dy="16"/>
<feGaussianBlur stdDeviation="16"/>
<feComposite in2="hardAlpha" operator="out"/>
<feColorMatrix type="matrix" values="0 0 0 0 0.0470588 0 0 0 0 0.0470588 0 0 0 0 0.0509804 0 0 0 0.1 0"/>
<feBlend mode="normal" in2="effect1_dropShadow_11_612" result="effect2_dropShadow_11_612"/>
<feBlend mode="normal" in="SourceGraphic" in2="effect2_dropShadow_11_612" result="shape"/>
</filter>
</defs>
</svg>
