<svg width="54" height="54" viewBox="0 0 54 54" fill="none" xmlns="http://www.w3.org/2000/svg">
<rect x="0.5" y="0.5" width="53" height="53" rx="15.5" fill="white"/>
<rect x="0.5" y="0.5" width="53" height="53" rx="15.5" stroke="#E6E6E6"/>
<path d="M27.0286 34.3428C26.1038 35.2677 24.9895 35.7302 23.6859 35.7303C22.3822 35.7304 21.268 35.268 20.3433 34.3433C19.4185 33.4185 18.9561 32.3042 18.9559 31.0003C18.9557 29.6964 19.418 28.582 20.3429 27.6571L22.5668 25.4332C22.7233 25.2767 22.9074 25.1985 23.1192 25.1986C23.331 25.1986 23.5152 25.2769 23.6718 25.4335C23.8284 25.5901 23.9066 25.7742 23.9065 25.9858C23.9064 26.1975 23.8281 26.3815 23.6716 26.5381L21.4469 28.7628C20.8289 29.3807 20.5199 30.1265 20.5199 31C20.5199 31.8735 20.8292 32.6195 21.4477 33.238C22.0662 33.8566 22.8123 34.1658 23.6858 34.1658C24.5592 34.1658 25.305 33.8568 25.923 33.2389L28.1477 31.0142C28.3042 30.8576 28.4883 30.7794 28.7001 30.7795C28.9119 30.7795 29.0961 30.8578 29.2527 31.0144C29.4093 31.171 29.4876 31.3551 29.4874 31.5668C29.4873 31.7784 29.409 31.9625 29.2525 32.119L27.0286 34.3428ZM25.683 30.1076C25.5264 30.2641 25.3423 30.3423 25.1305 30.3423C24.9187 30.3422 24.7345 30.2639 24.5779 30.1074C24.4213 29.9508 24.3431 29.7666 24.3432 29.555C24.3433 29.3434 24.4216 29.1593 24.5781 29.0028L28.9976 24.5834C29.1541 24.4268 29.3382 24.3486 29.55 24.3486C29.7618 24.3487 29.946 24.427 30.1026 24.5836C30.2592 24.7402 30.3375 24.9243 30.3373 25.1359C30.3372 25.3476 30.2589 25.5317 30.1024 25.6882L25.683 30.1076ZM32.1138 29.2577C31.9572 29.4142 31.7731 29.4925 31.5613 29.4924C31.3495 29.4924 31.1653 29.414 31.0087 29.2574C30.8521 29.1009 30.7739 28.9167 30.774 28.7051C30.7741 28.4935 30.8524 28.3094 31.0089 28.1529L33.2337 25.9282C33.8516 25.3102 34.1606 24.5645 34.1606 23.691C34.1606 22.8175 33.8513 22.0715 33.2328 21.4529C32.6143 20.8344 31.8683 20.5251 30.9948 20.5251C30.1213 20.5251 29.3755 20.8341 28.7576 21.4521L26.5328 23.6768C26.3763 23.8333 26.1922 23.9115 25.9804 23.9115C25.7686 23.9114 25.5844 23.8331 25.4278 23.6765C25.2712 23.52 25.193 23.3358 25.1931 23.1242C25.1932 22.9126 25.2715 22.7285 25.428 22.572L27.6519 20.3481C28.5768 19.4232 29.691 18.9608 30.9947 18.9607C32.2983 18.9606 33.4125 19.4229 34.3372 20.3477C35.262 21.2724 35.7245 22.3868 35.7246 23.6907C35.7248 24.9946 35.2625 26.109 34.3376 27.0338L32.1138 29.2577Z" fill="#ABABAB"/>
</svg>
